<?xml version="1.0" standalone="no"?>
<!DOCTYPE svg PUBLIC "-//W3C//DTD SVG 20010904//EN"
 "http://www.w3.org/TR/2001/REC-SVG-20010904/DTD/svg10.dtd">
<svg version="1.0" xmlns="http://www.w3.org/2000/svg"
 width="121.000000pt" height="121.000000pt" viewBox="0 0 121.000000 121.000000"
 preserveAspectRatio="xMidYMid meet">
<metadata>
Created by potrace 1.10, written by Peter Selinger 2001-2011
</metadata>
<g transform="translate(0.000000,121.000000) scale(0.100000,-0.100000)"
fill="#000000" stroke="none">
<path d="M572 1127 c-16 -19 -18 -197 -3 -224 14 -28 47 -30 61 -4 13 25 13
197 0 222 -12 22 -42 25 -58 6z m38 -118 c0 -84 -3 -110 -12 -107 -9 3 -14 35
-16 103 -3 103 1 130 18 120 6 -4 10 -53 10 -116z"/>
<path d="M122 1058 c-7 -7 -12 -20 -12 -31 0 -23 219 -247 242 -247 22 0 48
27 48 49 0 24 -222 241 -246 241 -11 0 -25 -5 -32 -12z m148 -123 c78 -78 111
-118 104 -125 -7 -7 -47 27 -127 106 -64 64 -117 120 -117 125 0 26 36 -2 140
-106z"/>
<path d="M915 961 c-60 -60 -112 -118 -116 -129 -10 -26 21 -56 49 -48 24 8
205 183 222 214 17 34 5 72 -24 72 -16 0 -55 -33 -131 -109z m149 81 c8 -14
-230 -245 -244 -237 -8 5 27 47 106 126 65 66 122 119 126 119 4 0 9 -4 12 -8z"/>
<path d="M395 1025 c-3 -8 -7 -22 -10 -30 -4 -14 2 -33 27 -75 5 -8 11 -22 14
-30 7 -22 40 -41 59 -34 24 10 30 52 11 90 -9 19 -16 39 -16 44 0 18 -39 50
-60 50 -11 0 -23 -7 -25 -15z m67 -71 c26 -62 28 -84 8 -84 -8 0 -60 121 -60
140 0 6 6 10 13 10 6 0 24 -30 39 -66z"/>
<path d="M738 1023 c-18 -20 -48 -104 -48 -133 0 -11 10 -25 22 -31 19 -10 25
-8 49 19 30 33 52 99 47 135 -4 29 -48 35 -70 10z m26 -82 c-16 -39 -35 -71
-43 -71 -17 0 -11 26 24 105 19 42 29 55 37 47 8 -8 3 -30 -18 -81z"/>
<path d="M545 839 c-59 -14 -96 -34 -132 -71 -44 -47 -73 -103 -73 -144 0 -21
-6 -37 -15 -40 -8 -4 -12 -10 -9 -15 3 -5 0 -9 -5 -9 -6 0 -11 8 -11 19 0 33
-26 43 -122 46 -101 4 -138 -8 -138 -45 0 -31 32 -40 135 -40 l95 0 -35 -51
c-19 -28 -35 -59 -35 -69 0 -10 -18 -26 -46 -41 -64 -32 -110 -89 -119 -145
-10 -67 4 -132 34 -166 l27 -30 503 0 c571 1 529 -6 556 87 19 66 19 107 0
170 -20 63 -57 118 -108 155 -42 31 -140 65 -162 56 -22 -8 -32 16 -29 77 4
119 -88 237 -198 251 -27 4 -54 8 -61 10 -6 2 -30 0 -52 -5z m153 -47 c45 -20
91 -68 113 -117 22 -48 24 -140 4 -175 -21 -36 -19 -39 22 -30 80 19 188 -22
244 -93 62 -77 76 -178 38 -268 l-21 -49 -494 0 -493 0 -20 26 c-76 97 -19
251 100 270 35 6 39 10 39 36 0 55 59 130 114 144 19 4 22 12 23 52 2 169 176
276 331 204z m-420 -209 c3 -10 -23 -13 -107 -13 -101 0 -131 6 -114 24 13 13
216 2 221 -11z"/>
<path d="M536 776 c-84 -31 -132 -94 -143 -185 l-6 -50 39 -3 c33 -3 43 2 69
29 78 84 220 60 274 -45 l19 -37 7 38 c12 62 1 129 -28 173 -50 74 -151 109
-231 80z m143 -42 c37 -18 91 -87 91 -116 0 -23 -4 -23 -58 4 -25 12 -63 22
-86 23 -50 3 -118 -19 -142 -46 -17 -18 -45 -25 -57 -13 -8 8 12 64 36 97 44
64 143 87 216 51z"/>
<path d="M565 576 c-26 -7 -47 -23 -60 -43 -20 -30 -21 -31 -85 -26 -53 4 -71
1 -97 -16 -44 -27 -63 -60 -66 -112 -3 -43 -4 -44 -44 -51 -81 -13 -125 -62
-126 -138 -1 -29 6 -58 16 -74 l17 -26 480 0 480 0 16 37 c11 27 14 57 11 100
-5 74 -40 131 -105 178 -40 27 -51 30 -120 30 -43 -1 -87 -5 -98 -9 -20 -7
-23 -3 -29 34 -9 53 -55 106 -103 120 -43 12 -36 12 -87 -4z m122 -53 c7 -10
16 -23 21 -28 5 -6 12 -23 16 -38 l7 -28 -60 7 c-72 8 -142 -13 -188 -56 -18
-17 -39 -30 -48 -30 -74 0 -156 -128 -110 -173 9 -9 20 -17 25 -17 13 0 50 42
50 56 0 7 13 22 29 33 l28 20 52 -25 c28 -14 58 -23 66 -20 25 9 30 37 11 69
-21 37 -7 57 40 57 42 0 88 -39 115 -96 23 -51 43 -60 70 -33 23 23 20 57 -12
124 -11 23 -15 43 -10 48 13 13 94 21 136 13 45 -9 112 -68 136 -121 33 -71
19 -165 -25 -165 -12 -1 -214 -1 -450 0 -481 0 -466 -2 -466 70 0 51 30 85 91
105 54 18 85 52 76 85 -3 11 -1 20 4 20 5 0 9 6 9 13 0 8 12 24 26 38 20 19
37 24 82 25 86 2 86 2 120 35 17 17 44 34 59 38 35 10 84 -3 100 -26z m24
-133 c60 -31 110 -133 81 -162 -12 -12 -15 -7 -27 46 -3 16 -23 47 -44 68 -34
34 -44 38 -88 38 -35 0 -60 -7 -83 -22 -44 -30 -45 -39 -7 -63 34 -22 49 -55
24 -55 -8 0 -18 7 -21 15 -10 27 -69 45 -109 34 -42 -11 -57 -28 -66 -72 -8
-39 -38 -46 -32 -7 8 62 52 104 115 112 14 2 33 14 42 26 41 58 143 78 215 42z"/>
<path d="M150 780 c-28 -28 -11 -52 58 -83 62 -29 115 -25 120 9 4 27 -22 48
-88 73 -67 26 -65 26 -90 1z m83 -28 c75 -32 82 -37 73 -51 -10 -15 -156 48
-149 65 6 17 -3 19 76 -14z"/>
<path d="M943 775 c-68 -33 -94 -77 -54 -90 43 -13 58 -12 105 14 64 34 76 53
52 80 -24 27 -40 26 -103 -4z m92 -24 c-20 -19 -135 -59 -141 -50 -8 14 -2 19
69 49 35 15 66 23 72 18 6 -5 6 -11 0 -17z"/>
<path d="M930 620 c-28 -7 -39 -42 -20 -66 18 -21 212 -20 234 2 20 19 20 38
1 54 -16 14 -172 21 -215 10z m208 -36 c-2 -13 -20 -16 -105 -16 -56 0 -107 3
-113 7 -27 17 10 25 111 25 96 0 110 -2 107 -16z"/>
</g>
</svg>
